<svg xmlns="http://www.w3.org/2000/svg" viewBox="0 0 800 800" width="800" height="800"><defs><path id="cheeseburger-s0" d="M119 512A281 28 0 0 1 681 512C688 544 683 579 643 590A243 31 0 0 1 157 590C117 579 112 544 119 512Z"/><linearGradient id="cheeseburger-bunb" x1="0" y1="0" x2="0" y2="1"><stop offset="0" stop-color="#F5D89C"/><stop offset="0.3" stop-color="#FACF84"/><stop offset="0.72" stop-color="#E0913D"/><stop offset="1" stop-color="#B05A1D"/></linearGradient><filter id="cheeseburger-bun-grain" x="0" y="0" width="100%" height="100%"><feTurbulence type="fractalNoise" baseFrequency="0.75" numOctaves="2" seed="3" result="n"/><feColorMatrix in="n" type="matrix" values="0 0 0 0 0  0 0 0 0 0  0 0 0 0 0  0 0 0 0.12 0" result="g"/><feComposite in="g" in2="SourceGraphic" operator="in" result="gi"/><feMerge><feMergeNode in="SourceGraphic"/><feMergeNode in="gi"/></feMerge></filter><linearGradient id="cheeseburger-cyl" x1="0" y1="0" x2="1" y2="0"><stop offset="0" stop-color="#fff" stop-opacity="0.26"/><stop offset="0.2" stop-color="#fff" stop-opacity="0.06"/><stop offset="0.5" stop-color="#fff" stop-opacity="0"/><stop offset="0.8" stop-color="#000" stop-opacity="0.1"/><stop offset="1" stop-color="#000" stop-opacity="0.3"/></linearGradient><linearGradient id="cheeseburger-crumb" x1="0" y1="0" x2="0" y2="1"><stop offset="0" stop-color="#F8E5BA"/><stop offset="1" stop-color="#F5D89C"/></linearGradient><path id="cheeseburger-s1" d="M99 442c0-1-1-1-1-1 0 0-1-1-1-1 1 0 2 0 2 0 1 0 1 0 2 0 0 0 0 0 1 0 0 0 0 0 0-1 0-1 0-2 0-3 0 0 1 0 1 0 0-1 1-2 1-2 1 0 2 1 2 1 1 0 2 0 2 0 1-1 1-1 2-1 1 0 2 0 2 0 1 0 2-1 2-1 1 0 2 1 3 0 1 0 1-1 2-2 0-1 1-2 2-3 1 0 2 0 3 0 1 0 2 0 3 0 1 1 2 2 3 2 1 0 2-1 3-1 1 0 2-1 4-1 1-1 2-1 3-1 1 0 3 0 4 0 1 0 2-2 3-3 1 0 3 1 4 0 1 0 2-2 4-2 1 0 3 2 4 2 2 1 3 2 5 2 1 0 3-1 4-2 2 0 3-1 5-1 1-1 3-1 4-2 2 0 3 0 5 0 1 0 3 0 5 0 1 0 3-2 5-2 1 0 3 0 5 0 2 0 3 0 5 0 2 0 4 1 5 1 2 1 4 1 6 1 2 0 3-2 5-3 2 0 4-1 6-1 2-1 4-2 5-2 2 0 4 0 6 0 2 1 4 2 6 2 2 0 4-1 6-1 2 0 4 0 6 0 2 0 4 0 6 0 2 0 5 0 7 0 2 0 4 0 6 0 2-1 4-2 6-3 2 0 4-1 6-1 3 0 5 1 7 1 2 1 4 1 7 1 2 0 4 1 6 1 2 0 5 0 7 0 2-1 4-1 6-2 3 0 5 0 7 0 2 0 5 0 7 0 2 0 4-1 7-2 2 0 4 0 7 0 2-1 4-1 6-1 3 0 5 1 7 2 3 1 5 1 7 2 3 0 5 0 7 0 2 0 5-1 7-1 2-1 5-2 7-2 2 0 5 0 7 1 2 0 5-1 7-1 2 0 5-1 7-1 2 1 5 2 7 2 2 0 5 0 7 0 2 0 5 1 7 1 2 1 4 2 7 2 2-1 4-2 7-3 2 0 4-1 7-1 2 0 4-1 6-1 3 1 5 1 7 1 3 1 5 2 7 2 2 1 5 0 7 0 2 0 4 0 7 1 2 0 4 0 6 0 2 0 5 0 7 0 2 0 4 0 6 0 3 0 5-1 7-2 2 0 4 0 7 0 2 0 4 1 6 2 2 0 4 1 6 1 2 1 4 2 6 2 2 0 4 0 7 0 2-1 4-1 6-1 2 0 4 0 6 0 2 1 4 0 6 0 2 0 4 0 6 0 2 0 4-1 6-1 1 0 3 1 5 1 2 1 4 2 6 3 1 1 3 2 5 2 2 0 4-1 6-1 1 0 3 0 5 0 2 0 4-1 5-1 2 0 4 0 5 0 2 0 4 1 5 1 2 0 4 0 5 0 2 0 3 1 5 1 1 1 3 1 4 2 2 0 3 0 5 1 1 0 3 1 4 1 2 0 3-2 5-2 1 0 3 0 4 0 1 0 3 0 4 0 1 0 3 0 4 1 1 1 2 2 3 3 1 0 3-1 4 0 1 0 2 1 3 1 1 0 3 0 4 1 1 0 2 1 3 1 1 0 2 0 3 0 1 0 2-1 3-2 1 0 2 0 3 0 1 0 2 2 2 3 1 0 2 1 2 1 1 1 2 2 2 2 1 0 2 0 3 0 1 0 2-1 2-1 1 0 1 1 2 2 0 0 1 0 2 0 0 0 1-1 2-1 0 0 1 1 1 1 1 0 1 1 1 2 0 0 0 1 0 2 0 1 0 1 0 1 0 0 1 0 2 0 0 0 1 0 1 0 1 0 2 0 2 0 0 0-1 1-1 1 0 1-2 0 0 1 1 1 5 4 7 6 2 3 3 6 5 8 1 3 3 5 4 7 1 3 1 5 1 8 1 2 1 4 2 6 0 2 2 5 2 7-1 3-2 5-4 7-1 3-2 6-4 8-1 2-4 5-6 7-3 2-7 4-9 5-1 1 1 1 1 2 0 0 0 0 0 0 0 0-1 0-1 1 0 0 0 0 0 0 0 1-1 1-1 1 0 1 1 2 1 3 0 0-1 1-1 1-1 0-2-1-2-1-1 0-2-1-2-1-1 0-2 0-2 0-1 1-1 2-1 2-1 1-1 2-2 2 0 0-1-1-2-1-1 0-1 1-2 2-1 1-1 1-2 1-1 1-2 1-3 1 0 0-1 1-2 1-1 0-2-2-3-2-1-1-3-1-4-1 0 1-1 2-2 2-1 1-2 1-3 2-1 0-2 2-3 2-1 1-3-1-4-1-1 0-2 0-4 1-1 0-2 1-3 1-2 0-3-1-4-1-2 0-3 1-4 1-2 0-3-1-5-1-1 0-2 1-4 2-1 0-2 1-4 2-1 1-3 1-4 2-2 0-3 0-5 0-2 0-3-1-5-1-2 0-3-1-5-1-1 1-3 1-5 2-1 0-3 0-5 0-2 0-3-1-5 0-2 0-4 0-5 1-2 0-4 1-6 1-1 1-3 2-5 2-2 1-4 1-6 1-2-1-4-3-6-3-2 0-3 1-5 1-2 0-4-1-6-1-2 0-4 1-6 1-2 1-4 1-6 2-2 0-4-1-6-1-2 1-4 2-7 2-2 0-4 1-6 1-2 0-4 0-6 0-2 0-4 0-7 0-2-1-4-3-6-3-2-1-4 0-7 1-2 0-4 1-6 2-2 0-5 0-7 0-2 0-4 1-6 1-3 1-5 0-7 0-2 0-5-1-7-1-2 0-4 1-7 1-2 0-4-1-7-1-2 0-4 0-6 0-3 0-5-1-7-1-3 0-5 1-7 1-3 1-5 2-7 2-2 0-5 0-7 1-2 0-5 0-7-1-2 0-5-1-7-1-2 0-5-1-7-1-2 0-5 1-7 1-2 0-5 0-7 0-2-1-5-1-7-1-2 0-5 0-7 1-2 0-4 0-7 1-2 0-4 1-7 1-2 0-4 0-7 0-2-1-4-2-6-3-3 0-5-1-7-1-2 0-5 0-7 0-2 0-5 1-7 1-2 1-4 0-7 0-2 0-4 0-6 0-2 0-5 1-7 1-2 0-4-1-6-1-3 0-5 1-7 1-2-1-4-2-6-3-3 0-5-2-7-2-2-1-4 1-6 1-2 0-4 1-6 1-3 0-5 0-7 1-2 0-4 1-6 0-2 0-4-1-6-2-2 0-4 0-6 0-2 0-4 0-6 0-2 0-4-1-5-1-2-1-4-2-6-2-2 0-4 0-6 0-2 0-3 0-5 0-2 1-4 1-6 2-2 0-3 0-5-1-2 0-4 0-5-1-2 0-4-2-5-2-2 0-4 0-5 0-2-1-3-1-5-1-2 0-3 0-5-1-1 0-3 0-4 0-2 0-4 1-5 1-2 0-3-1-4-1-2 0-4 1-5 1-1 0-3 0-4-1-1-1-2-3-4-4-1 0-2 0-3 0-2 0-3-1-4-1-1 0-3 1-4 1-1 0-2 0-4 0-1 0-2-1-3-1-1 0-2 1-3 1-1 0-2-1-3-1-1 0-2-1-3-1-1 0-2-1-3-1 0-1-1-3-2-3 0-1-1-1-2-1-1 1-2 2-3 2-1 0-2 0-2 0-1 0-2 0-3 0 0 0-1-1-1-2-1 0-1 0-2 0 0-1-1-1-1-1-1-1 0-2-1-3 0 0-1 1-1 0-1 0 0-1 0-2-1 0-1 1-2 1-1 0-3 1-3 1-1 0 0-1 0-1 0 0-1-1 0-1 0-1 1-1 1-1 1-1 2-1 1-2-1-2-6-4-8-6-2-3-4-5-5-7-2-3-3-5-5-8-1-2-3-4-4-6-1-2-2-5-2-7 0-2-1-5 0-8 0-2 3-4 5-6 1-3 4-4 6-6 2-3 4-4 6-7 2-2 5-6 6-8Z"/><linearGradient id="cheeseburger-patty-beef" x1="0" y1="0" x2="0" y2="1"><stop offset="0" stop-color="#9A5530"/><stop offset="0.28" stop-color="#77391B"/><stop offset="0.72" stop-color="#57290F"/><stop offset="1" stop-color="#3E1B09"/></linearGradient><filter id="cheeseburger-meat-beef-grain" x="0" y="0" width="100%" height="100%"><feTurbulence type="fractalNoise" baseFrequency="1.3" numOctaves="2" seed="3" result="n"/><feColorMatrix in="n" type="matrix" values="0 0 0 0 0  0 0 0 0 0  0 0 0 0 0  0 0 0 0.3 0" result="g"/><feComposite in="g" in2="SourceGraphic" operator="in" result="gi"/><feMerge><feMergeNode in="SourceGraphic"/><feMergeNode in="gi"/></feMerge></filter><clipPath id="cheeseburger-c1"><use href="#cheeseburger-s1"/></clipPath><linearGradient id="cheeseburger-sear" x1="0" y1="0" x2="0" y2="1"><stop offset="0" stop-color="#1a0802" stop-opacity="0.3"/><stop offset="0.18" stop-color="#1a0802" stop-opacity="0"/><stop offset="0.8" stop-color="#1a0802" stop-opacity="0"/><stop offset="1" stop-color="#1a0802" stop-opacity="0.4"/></linearGradient><clipPath id="cheeseburger-b1"><use href="#cheeseburger-s0"/></clipPath><filter id="cheeseburger-soft" filterUnits="userSpaceOnUse" x="0" y="0" width="800" height="800"><feGaussianBlur stdDeviation="5"/></filter><path id="cheeseburger-s2" d="M96 432c2-3 3-5 10-8 7-2 17-5 30-7 13-3 30-5 49-7 18-1 40-3 63-4 23-2 48-3 73-3 26-1 53-1 79-1 26 0 53 0 79 1 25 0 50 1 73 3 23 1 45 3 63 4 19 2 36 4 49 7 13 2 23 5 30 7 7 3 8 5 11 8 2 3 5 8 5 11-1 3-7 6-9 8-3 2-4 4-6 6-2 2-4 4-6 7-2 2-4 6-6 9-2 3-4 7-6 11-2 3-4 7-6 10-2 4-4 7-6 9-2 2-4 3-6 3-2 1-4 0-6-2-2-1-4-4-6-7-2-2-4-6-6-9-2-2-4-6-6-8-2-3-4-5-6-7-2-1-4-3-6-4-2-1-4-1-6-2-2 0-4 0-6 0-2 0-4 0-6 0-2 0-4 0-6 0-2 0-4 0-6 1-2 0-4 0-6 0-2 0-4 0-6 1-2 0-4 0-6 0-2 0-4 0-6 0-2 0-4 1-6 1-2 0-4 0-6 0-2 0-4 0-6 0-2 1-4 1-6 1-2 0-4 0-6 0-2 0-4 0-6 1-2 0-4 0-6 1-2 1-4 3-6 5-2 3-4 7-6 11-2 4-4 9-6 11-2 3-4 3-6 2-2-1-4-6-6-10-2-3-4-8-6-11-2-3-4-4-6-6-2-1-4-1-6-1-2-1-4 0-6 0-2 0-4 0-6 0-2 0-4 0-6 0-2 0-4 0-6 0-2 0-4 0-6 0-2 0-4 0-6 0-2 0-4 0-6 0-2 0-4 0-6 0-2 0-4 0-6 0-2 0-4 0-6 0-2 0-4 0-6 0-2 0-4 0-6 0-2 0-4 0-6 0-2 0-4 0-6 0-2 0-4 0-6 0-2 0-4 0-6 1-2 0-4 0-6 1-2 1-4 2-6 4-2 3-4 7-6 10-2 4-4 9-6 10-2 1-4 0-6-2-2-2-4-8-6-11-2-3-4-7-6-9-2-2-4-3-6-4-2 0-4 0-6 0-2 0-4 0-6-1-2 0-4 0-6 1-2 0-4 0-6 1-2 0-4 2-6 3-2 2-4 5-6 7-2 3-4 6-6 8-2 1-4 2-6 2-2-1-4-3-6-6-2-2-4-6-6-8-2-2-4-5-6-6-2-2-4-2-6-3-2-1-4-1-6-1-2 0-4 0-6 0-2-1-4-1-6-1-2 0-4 0-6 0-2 0-4 0-6-1-2 0-4 0-6 0-2 0-4 0-6 0-2-1-4-1-6-1-2 0-4 0-6 0-2 0-4-1-6-1-2 0-4 0-6 0-2 0-4 0-6 0-2 0-4 0-6 1-2 0-4 1-6 2-2 1-4 2-6 4-2 2-4 4-6 7-2 3-4 6-6 9-2 3-4 7-6 10-2 4-4 7-6 10-2 3-4 5-6 6-2 1-4 1-6 0-2-1-4-3-6-5-2-3-4-7-6-11-2-3-4-8-6-12-2-4-4-9-6-12-2-4-4-8-6-11-2-3-4-5-6-8-3-4-10-10-10-14-1-4 2-8 5-11ZM123 505a15.6 15.6 0 1 1 31.2 0a15.6 15.6 0 1 1 -31.2 0ZM644 495a14.4 14.4 0 1 1 28.8 0a14.4 14.4 0 1 1 -28.8 0ZM279 489a8.4 8.4 0 1 1 16.8 0a8.4 8.4 0 1 1 -16.8 0ZM497 497a7.5 7.5 0 1 1 15 0a7.5 7.5 0 1 1 -15 0ZM349 496a6.9 6.9 0 1 1 13.8 0a6.9 6.9 0 1 1 -13.8 0Z"/><linearGradient id="cheeseburger-drape2" x1="0" y1="402" x2="0" y2="528" gradientUnits="userSpaceOnUse"><stop offset="0" stop-color="#FFD45A"/><stop offset="0.3" stop-color="#F9AE25"/><stop offset="1" stop-color="#E07A16"/></linearGradient><linearGradient id="cheeseburger-cylsoft" x1="0" y1="0" x2="1" y2="0"><stop offset="0" stop-color="#fff" stop-opacity="0.18"/><stop offset="0.35" stop-color="#fff" stop-opacity="0"/><stop offset="0.8" stop-color="#000" stop-opacity="0"/><stop offset="1" stop-color="#000" stop-opacity="0.14"/></linearGradient><clipPath id="cheeseburger-b2"><use href="#cheeseburger-s0"/><use href="#cheeseburger-s1"/></clipPath><radialGradient id="cheeseburger-pickle" cx="0.5" cy="0.5" r="0.5"><stop offset="0" stop-color="#E6EAA8"/><stop offset="0.55" stop-color="#BCC860"/><stop offset="1" stop-color="#809532"/></radialGradient><path id="cheeseburger-s3" d="M209 464A40 14 -4 1 1 289 458A40 14 -4 1 1 209 464ZM389 462A40 14 4 1 1 469 468A40 14 4 1 1 389 462ZM534 457A40 14 4 1 1 614 462A40 14 4 1 1 534 457Z"/><clipPath id="cheeseburger-b3"><use href="#cheeseburger-s0"/><use href="#cheeseburger-s1"/><use href="#cheeseburger-s2"/></clipPath><path id="cheeseburger-s40" d="M330 395c2-3 1-1 1-2 0 0 1-1 2-1 1-1 2-1 3-2 2 0 3-1 5-1 1-1 3-1 6-2 2 0 4-1 6-1 3-1 6-1 9-1 2-1 6-1 9-2 3 0 6-1 10-1 4 0 7-1 11-1 4 0 8-1 12-1 4 0 9-1 13-1 5 0 9-1 14-1 4 0 9 0 14-1 5 0 10 0 15 0 5 0 10 0 15-1 5 0 10 0 15 0 5 0 11 0 16 0 5 0 11 0 16 0 5 0 10 0 16 0 5 0 10 0 15 0 6 0 11 0 16 0 5 1 10 1 15 1 5 0 10 0 15 0 5 1 9 1 14 1 5 0 9 1 13 1 5 0 9 1 13 1 5 0 9 1 12 1 4 0 8 1 12 1 3 0 7 1 10 1 3 1 6 1 9 2 3 0 6 0 8 1 3 0 5 1 7 1 2 1 4 1 6 2 2 0 3 1 4 1 2 1 3 1 4 2 0 0 1 1 2 1 0 1-2-1 0 2 2 3 11 10 11 15 0 5-9 12-11 15-2 3 0 1 0 2-1 0-2 1-2 1-1 1-2 1-4 2-1 0-2 1-4 1-2 1-4 1-6 2-2 0-4 1-7 1-2 1-5 1-8 1-3 1-6 1-9 2-3 0-7 1-10 1-4 0-8 1-12 1-3 0-7 1-12 1-4 0-8 1-13 1-4 0-8 1-13 1-5 0-9 0-14 1-5 0-10 0-15 0-5 0-10 0-15 1-5 0-10 0-16 0-5 0-10 0-15 0-6 0-11 0-16 0-5 0-11 0-16 0-5 0-11 0-16 0-5 0-10 0-15 0-5-1-10-1-15-1-5 0-10 0-15 0-5-1-10-1-14-1-5 0-9-1-14-1-4 0-9-1-13-1-4 0-8-1-12-1-4 0-7-1-11-1-4 0-7-1-10-1-3-1-7-1-9-2-3 0-6 0-9-1-2 0-4-1-6-1-3-1-5-1-6-2-2 0-3-1-5-1-1-1-2-1-3-2-1 0-2-1-2-1 0-1 1 1-1-2-1-3-10-10-10-15 0-5 9-12 10-15Z"/><linearGradient id="cheeseburger-tom" x1="0" y1="0" x2="0" y2="1"><stop offset="0" stop-color="#F36A4E"/><stop offset="0.3" stop-color="#DE3D22"/><stop offset="0.75" stop-color="#B52816"/><stop offset="1" stop-color="#8F1F12"/></linearGradient><path id="cheeseburger-s41" d="M87 398c2-3 0-1 0-2 1 0 2-1 2-1 1-1 2-1 4-2 1 0 2-1 4-1 2-1 4-1 6-2 2 0 4-1 6-1 3-1 6-1 8-2 3 0 6 0 9-1 4 0 7-1 10-1 4 0 8-1 11-1 4-1 8-1 12-1 4-1 9-1 13-1 4-1 9-1 13-1 5 0 10-1 14-1 5 0 10 0 15 0 5-1 10-1 15-1 5 0 10 0 16 0 5 0 10-1 15-1 5 0 11 0 16 0 5 0 11 0 16 0 5 0 11 0 16 0 5 0 10 1 15 1 6 0 11 0 16 0 5 0 10 0 15 1 5 0 10 0 15 0 4 0 9 1 14 1 4 0 9 0 13 1 4 0 9 0 13 1 4 0 8 0 12 1 3 0 7 1 11 1 3 0 6 1 10 1 3 1 6 1 9 1 2 1 5 1 8 2 2 0 4 1 6 1 2 1 4 1 6 2 2 0 3 1 4 1 2 1 3 1 4 2 0 0 1 1 2 1 0 1-2-1 0 2 2 3 11 10 11 15 0 5-9 12-11 15-2 3 0 1 0 2-1 0-2 1-2 1-1 1-2 1-4 2-1 0-2 1-4 1-2 1-4 1-6 2-2 0-4 1-6 1-3 1-6 1-8 2-3 0-6 0-9 1-4 0-7 1-10 1-4 0-8 1-11 1-4 1-8 1-12 1-4 1-9 1-13 1-4 1-9 1-13 1-5 0-10 1-14 1-5 0-10 0-15 0-5 1-10 1-15 1-5 0-10 0-16 0-5 0-10 1-15 1-5 0-11 0-16 0-5 0-11 0-16 0-5 0-11 0-16 0-5 0-10-1-15-1-6 0-11 0-16 0-5 0-10 0-15-1-5 0-10 0-15 0-4 0-9-1-14-1-4 0-9 0-13-1-4 0-9 0-13-1-4 0-8 0-12-1-3 0-7-1-11-1-3 0-6-1-10-1-3-1-6-1-9-1-2-1-5-1-8-2-2 0-4-1-6-1-2-1-4-1-6-2-2 0-3-1-4-1-2-1-3-1-4-2 0 0-1-1-2-1 0-1 2 1 0-2-2-3-11-10-11-15 0-5 9-12 11-15Z"/><clipPath id="cheeseburger-b4"><use href="#cheeseburger-s0"/><use href="#cheeseburger-s1"/><use href="#cheeseburger-s2"/><use href="#cheeseburger-s3"/></clipPath><path id="cheeseburger-s5b" d="M87 386c3-2 3-5 10-8 7-3 18-5 32-8 13-2 30-4 50-6 19-2 41-4 64-5 24-1 50-3 76-3 26-1 54-1 81-1 27 0 55 0 81 1 26 0 52 2 76 3 23 1 45 3 64 5 20 2 37 4 50 6 14 3 25 5 32 8 7 3 7 6 10 8 4 2 8 1 10 4 3 2 7 8 4 10-3 2-16-2-21 2-4 3-4 14-6 17-3 4-6 2-9 3-3 0-6 4-8 2-3-2-5-15-7-14-2 1-4 15-6 19-2 3-5 1-8 1-2 0-5 4-7 1-3-3-4-17-6-17-2 0-4 14-6 17-2 3-5 0-7 1-3 0-5 3-7 0-3-2-4-16-6-15-3 1-6 19-9 23-4 4-8 1-12 1-4 1-9 5-12 1-4-3-7-20-9-21-3-2-4 10-7 12-2 3-5 1-7 1-3 0-6 2-8 0-2-2-4-13-6-12-3 2-6 19-9 23-4 4-8 1-12 1-3 0-8 4-11 0-3-3-7-20-9-22-2-2-2 8-4 10-1 2-3 0-4 0-2 0-3 2-5 0-1-1-2-10-3-9-2 1-3 13-5 16-1 3-4 0-5 0-2 0-4 3-6 0-2-2-2-17-5-16-2 1-6 19-9 23-4 3-8 0-13 0-4 0-8 4-12 0-3-4-6-22-9-22-4 0-7 20-11 24-5 4-10 0-14 0-5 0-10 4-14 0-5-4-9-22-11-24-3-2-4 10-5 12-2 2-5 0-7 0-2 0-4 2-6 0-2-2-4-12-5-12-2 1-3 12-4 15-1 2-3 0-5 0-1 0-3 2-4 0-2-3-2-15-4-15-2-1-4 10-6 12-2 2-5 0-7 0-3 0-5 2-7 0-3-2-3-15-6-13-3 2-8 21-12 25-4 4-10 0-15 0-5 0-10 4-15-1-4-4-8-24-11-26-3-2-5 13-7 16-3 2-6-1-9-1-3 0-6 2-9 0-3-3-5-16-7-17-2 0-3 11-5 14-2 2-5-1-7-1-3 0-5 2-7 0-2-3-4-14-6-14-2-1-3 8-5 10-3 2-5 0-8 0-2-1-5 1-7-1-2-2-4-12-6-12-2 1-3 14-6 16-2 3-5 0-7 0-2 0-5 2-7-1-3-3-4-17-6-18-2 0-3 13-5 16-2 2-4-1-6-1-2 0-4 2-6-1-2-3-2-18-5-17-2 1-7 20-11 24-4 3-9-2-13-3-5-1-10 1-14-5-4-6-8-28-10-32-3-4-3 9-4 10-2 1-7-2-7-5-1-3 1-8 4-10 2-3 6-2 10-4Z"/><path id="cheeseburger-s5" d="M87 386c3-2 3-5 10-8 7-3 18-5 32-8 13-2 30-4 50-6 19-2 41-4 64-5 24-1 50-3 76-3 26-1 54-1 81-1 27 0 55 0 81 1 26 0 52 2 76 3 23 1 45 3 64 5 20 2 37 4 50 6 14 3 25 5 32 8 7 3 7 6 10 8 4 2 8 1 10 4 3 2 5 9 4 10-1 1-7-7-10-5-2 2-4 12-6 15-2 4-5 4-8 5-2 1-5 4-7 2-3-1-5-10-7-10-1 0-2 9-4 11-1 2-3 1-5 1-2 1-4 3-6 1-1-1-2-10-4-9-2 1-4 13-7 16-3 3-6 1-9 2-3 0-6 3-9 1-3-3-5-14-7-15-2 0-3 12-4 14-2 2-4 0-5 1-2 0-4 2-6 0-1-2-2-12-4-13-1 0-2 9-3 10-1 2-3 1-5 1-1 0-3 2-4 0-1-1-2-9-4-9-1 0-4 7-6 9-3 1-6 0-9 0-2 1-5 2-8 1-2-1-5-9-7-8-2 1-3 12-5 14-2 3-5 1-7 1-2 0-5 2-7 0-2-2-4-14-5-13-2 0-3 12-4 14-2 3-4 1-5 1-2 0-4 2-5 0-2-2-2-15-4-15-3 1-7 16-12 20-4 3-9 0-14 0-5 0-10 4-15 1-4-3-8-17-11-19-3-1-5 8-8 10-2 1-6 0-9 0-3 0-7 2-10 0-2-1-4-11-7-9-3 2-6 17-10 20-4 3-9 0-13 0-4 0-9 3-13 0-4-3-7-20-10-20-3 0-5 16-9 19-3 3-8 0-11 0-4 0-8 3-12 0-3-3-7-18-9-19-2-1-3 10-4 12-2 2-4 0-6 0-2 0-4 2-6 0-1-2-2-12-4-12-2 0-4 10-7 12-2 2-5 0-8 0-3 0-6 2-9-1-2-2-4-11-6-12-3-1-5 7-8 9-3 1-6-1-9-1-3 0-7 1-9 0-3-2-6-9-8-9-2 0-2 8-4 10-1 1-3 0-5 0-1 0-3 1-5-1-1-2-2-10-4-10-1 0-3 10-5 12-2 2-5 0-7 0-2 0-5 2-7-1-2-2-2-14-5-13-3 1-7 16-12 19-5 3-10 0-16-1-5 0-10 3-15-1-5-4-9-19-12-21-3-2-3 6-5 7-1 1-3 0-5-1-2 0-4 1-6 0-1-2-2-8-4-8-2 0-5 6-7 8-3 1-6-1-9-2-3 0-7 1-9-1-3-2-6-10-8-10-2-1-2 6-4 7-2 1-4-1-6-1-2-1-4 0-6-2-2-1-3-10-5-9-1 1-3 11-5 13-1 2-4-1-6-3-2-1-4-2-6-5-2-4-3-13-5-15-2-2-8 6-8 5-1-1 1-8 4-10 2-3 6-2 10-4Z"/><linearGradient id="cheeseburger-lb5" x1="0" y1="355" x2="0" y2="443" gradientUnits="userSpaceOnUse"><stop offset="0" stop-color="#25592B"/><stop offset="1" stop-color="#3F8031"/></linearGradient><linearGradient id="cheeseburger-lf5" x1="0" y1="355" x2="0" y2="443" gradientUnits="userSpaceOnUse"><stop offset="0" stop-color="#3A7C31"/><stop offset="0.55" stop-color="#5FA23A"/><stop offset="1" stop-color="#A4D154"/></linearGradient><linearGradient id="cheeseburger-cylsoft2" x1="0" y1="0" x2="1" y2="0"><stop offset="0" stop-color="#fff" stop-opacity="0.12"/><stop offset="0.4" stop-color="#fff" stop-opacity="0"/><stop offset="0.85" stop-color="#000" stop-opacity="0"/><stop offset="1" stop-color="#000" stop-opacity="0.2"/></linearGradient><clipPath id="cheeseburger-b5"><use href="#cheeseburger-s0"/><use href="#cheeseburger-s1"/><use href="#cheeseburger-s2"/><use href="#cheeseburger-s3"/><use href="#cheeseburger-s40"/><use href="#cheeseburger-s41"/></clipPath><path id="cheeseburger-s6" d="M110 386c0-9 0-42 1-55 1-13 3-17 5-24 2-7 4-12 7-18 3-5 7-10 11-14 4-5 8-9 13-13 5-4 10-8 16-11 6-3 12-7 19-9 6-3 13-6 21-9 7-2 15-4 23-6 8-3 17-4 26-6 9-2 18-3 27-5 9-1 19-2 29-3 10-1 20-2 30-3 10-1 20-1 31-1 10-1 21-1 31-1 10 0 21 0 31 1 11 0 21 0 31 1 10 1 20 2 30 3 10 1 20 2 29 3 9 2 18 3 27 5 9 2 18 3 26 6 8 2 16 4 23 6 8 3 15 6 21 9 7 2 13 6 19 9 6 3 11 7 16 11 5 4 9 8 13 13 4 4 8 9 11 14 3 6 5 11 7 18 2 7 4 11 5 24 1 13 1 46 1 55A290 29 0 0 1 110 386Z"/><radialGradient id="cheeseburger-bunt" cx="0.36" cy="0.28" r="0.8"><stop offset="0" stop-color="#FACF84"/><stop offset="0.42" stop-color="#E0913D"/><stop offset="0.8" stop-color="#B05A1D"/><stop offset="1" stop-color="#86400F"/></radialGradient><linearGradient id="cheeseburger-band" x1="0" y1="333" x2="0" y2="415" gradientUnits="userSpaceOnUse"><stop offset="0" stop-color="#F5D89C" stop-opacity="0"/><stop offset="0.55" stop-color="#F5D89C" stop-opacity="0.4"/><stop offset="1" stop-color="#F5D89C" stop-opacity="0.85"/></linearGradient><radialGradient id="cheeseburger-gloss" cx="0.5" cy="0.5" r="0.5"><stop offset="0" stop-color="#fff" stop-opacity="0.6"/><stop offset="0.55" stop-color="#fff" stop-opacity="0.18"/><stop offset="1" stop-color="#fff" stop-opacity="0"/></radialGradient><radialGradient id="cheeseburger-spec" cx="0.5" cy="0.5" r="0.5"><stop offset="0" stop-color="#fff" stop-opacity="0.75"/><stop offset="1" stop-color="#fff" stop-opacity="0"/></radialGradient><clipPath id="cheeseburger-b6"><use href="#cheeseburger-s0"/><use href="#cheeseburger-s1"/><use href="#cheeseburger-s2"/><use href="#cheeseburger-s3"/><use href="#cheeseburger-s40"/><use href="#cheeseburger-s41"/><use href="#cheeseburger-s5b"/><use href="#cheeseburger-s5"/></clipPath><filter id="cheeseburger-shadow" x="-30%" y="-80%" width="160%" height="260%"><feGaussianBlur stdDeviation="16"/></filter><filter id="cheeseburger-blur7" x="-50%" y="-50%" width="200%" height="200%"><feGaussianBlur stdDeviation="7"/></filter></defs><ellipse cx="410" cy="611" rx="295.8" ry="30" fill="#3a1f10" opacity="0.34" filter="url(#cheeseburger-shadow)"/><ellipse cx="406" cy="603" rx="237" ry="10" fill="#3a1f10" opacity=".3" filter="url(#cheeseburger-blur7)"/><use href="#cheeseburger-s0" fill="url(#cheeseburger-bunb)" filter="url(#cheeseburger-bun-grain)"/><use href="#cheeseburger-s0" fill="url(#cheeseburger-cyl)"/><ellipse cx="400" cy="512" rx="277" ry="27" fill="url(#cheeseburger-crumb)"/><path d="M145 538Q179 590 302 596" fill="none" stroke="#fff" stroke-opacity=".16" stroke-width="7" stroke-linecap="round"/><g clip-path="url(#cheeseburger-b1)" opacity=".45"><use href="#cheeseburger-s1" x="5" y="9" fill="#3a1606" filter="url(#cheeseburger-soft)"/></g><use href="#cheeseburger-s1" fill="url(#cheeseburger-patty-beef)" filter="url(#cheeseburger-meat-beef-grain)"/><use href="#cheeseburger-s1" fill="url(#cheeseburger-cyl)"/><g clip-path="url(#cheeseburger-c1)"><path d="M469 444l-2.6 0.4M263 528l-1.7 0.5M249 505l-0.9-0.3M263 442l-0.9-0.1M559 478l-2.1 0.7M203 486l-0.3-0.5M225 439l2.1 0.4M461 467l-1.2 1M538 537l-3 0.2M337 477l-2.6-0.2M160 462l2-0.3M338 529l1.8 0.3M328 484l-0.1-1M344 429l3-1.1M276 535l-1.8 0.7M243 535l-0.8 0.2M519 526l-1.2 0M614 473l0.7 0.4M511 521l2-1M665 511l-1.8 0.5M109 509l-0.7 0.4M360 433l-0.6-1.1M118 508l1.2-1M179 467l0.9-0.8M274 434l2.2-0.8M131 497l1.4 0.1M206 486l-1.2-0.3M188 504l-0.4 0.1M675 497l1.2-1M351 436l-0.1 0.2M158 429l-0.3 0.2M256 514l1.3-0.9M239 428l2.4-0.8M239 516l-1.3-0.7M588 477l-0.7 0.3M328 420l2.1-0.9M504 535l1.2-0.6M531 449l0.1 1M516 498l1.3 1M224 462l2.2 0" stroke="#2A1106" stroke-width="4" stroke-linecap="round" fill="none" opacity=".8"/><path d="M524 469l1.3 0.9M222 534l-0.2-0.5M554 422l-2.2 0.3M174 470l2-1.2M524 458l-1.6 1M332 432l-1.3 1M632 469l-0.4 0.7M214 445l0.7-0.9M550 469l2.8-0.5M490 435l1.4 0.6M382 501l1.7 0.3M499 514l-0.1 0.6M327 510l-3 1.2M225 496l2-0.6M664 508l2.3 0.5M611 511l-2 1.1M304 533l-0.3 0.9M186 486l-0.2 0.5M264 444l-1.6 0.3M208 488l-0.8 0.9M522 513l2.9-1M668 483l0.6 0.2M182 433l2.3-0.7M544 466l-2.8 0.1M296 471l-2.3-0.4M253 484l0.5-0.4M689 453l2.8 0.1M544 520l-1.5 0.8M294 432l-2.4 0.2M111 469l-0.8-0.4M128 444l1.2 0.6M128 459l-0.3 0.1M269 447l2 0.2M427 456l0.7-0.7M469 423l-0.5 0.8M231 513l0.5 0M546 478l0.6 0.3M454 506l1.4-1M319 479l1.2 0.5M426 449l-2.3 1.1" stroke="#2A1106" stroke-width="2.5" stroke-linecap="round" fill="none" opacity=".8"/><path d="M596 437l-1-0.4M145 515l-2.4 0.3M526 525l1.9 1.1M608 504l0.1-0.7M662 522l-0.2 0.4M109 503l-2.2-0.4M526 512l1.7 0M154 433l-1.3-0.7M623 483l0.7-0.7M214 488l-0.3-0.9M334 461l0.6 0.4M235 426l2.5 0.4M197 445l-0.4-0.9M670 449l-1.9-1M335 520l0.1-1M505 419l2.4 0M436 521l-2.4-0.1M498 462l-2.3 0.7M199 506l-1.8 0M433 430l-1.6 0.6M394 504l-1-0.8M375 521l-1.5 1.1M586 463l0.1-0.3M499 494l-0.8-0.9M623 457l1.4-0.9M115 466l0.5 0.9M419 511l-2.9-0.7M319 524l-0.2 1.1M523 495l-1.6 0.3M114 480l1.8-0.5M488 451l-0.6 0.3M566 456l-1.2-0.3M252 535l2.1-0.4M602 497l0.6 0" stroke="#B06A3A" stroke-width="3.5" stroke-linecap="round" fill="none" opacity=".8"/><path d="M345 463l1.5 1M617 441l-2.9-0.8M565 499l1.1-0.8M429 421l1.3 1.1M495 496l0.1 0.2M644 469l-2.5-1.2M467 425l2.3 0.5M534 488l-1.2 0.1M521 534l-0.6-0.1M267 527l-1.4 1.1M153 436l1.7-0.1M111 496l-2.4 0.5M406 433l-2.6-0.3M591 432l-1.2 1M179 441l-2.8 0.5M682 491l-1.2-0.3M489 463l-2.5 0.4M315 513l0.1-0.4M208 483l-1 1M399 501l1.7-0.7M345 458l0.4-0.7M320 427l-0.3 0.3M317 497l2.6 0.4M186 520l-2.3-1.1M521 492l-1.5-0.8M516 513l1.5 0.1M129 482l-0.8-0.4M264 455l-0.3 0.1M349 479l2.3 0.9M664 475l-2.4 0.9" stroke="#B06A3A" stroke-width="2" stroke-linecap="round" fill="none" opacity=".8"/><path d="M389 517l2 0M215 426l1.5 0M460 533l1.8 0M246 451l1.9 0M412 514l2.2 0M186 530l2.7 0M331 501l1.3 0M137 524l2.9 0M275 448l2.5 0M460 499l2.6 0M460 485l1.6 0M460 443l2.8 0M332 467l2.1 0M330 518l2.2 0M460 480l1.1 0M460 464l1.1 0" stroke="#FFE6C8" stroke-width="1.8" stroke-linecap="round" fill="none" opacity=".55"/></g><use href="#cheeseburger-s1" fill="url(#cheeseburger-sear)"/><g clip-path="url(#cheeseburger-b2)" opacity=".45"><use href="#cheeseburger-s2" x="5" y="9" fill="#3a1606" filter="url(#cheeseburger-soft)"/></g><use href="#cheeseburger-s2" fill="url(#cheeseburger-drape2)"/><use href="#cheeseburger-s2" fill="url(#cheeseburger-cylsoft)"/><ellipse cx="133.1" cy="501.6" rx="4.7" ry="7" fill="#FFF1B8" opacity=".8"/><ellipse cx="654.2" cy="492.3" rx="4.3" ry="6.5" fill="#FFF1B8" opacity=".8"/><ellipse cx="285" cy="486.7" rx="2.5" ry="3.8" fill="#FFF1B8" opacity=".8"/><ellipse cx="502.5" cy="495.7" rx="2.2" ry="3.4" fill="#FFF1B8" opacity=".8"/><ellipse cx="354.1" cy="494.3" rx="2.1" ry="3.1" fill="#FFF1B8" opacity=".8"/><path d="M104 446q76 27 167 32" fill="none" stroke="#FFF1B8" stroke-width="2.2" stroke-linecap="round" opacity=".7"/><g clip-path="url(#cheeseburger-b3)" opacity=".45"><use href="#cheeseburger-s3" x="5" y="9" fill="#3a1606" filter="url(#cheeseburger-soft)"/></g><use href="#cheeseburger-s3" fill="#46641A"/><g transform="translate(249 461)rotate(-4)"><ellipse rx="36" ry="11" fill="url(#cheeseburger-pickle)"/><ellipse rx="39" ry="13" fill="none" stroke="#2F450D" stroke-width="2.4" stroke-dasharray="3.5 3"/><path d="M-20 -1l0.4 0M-11 4l0.4 0M0 5l0.4 0M11 4l0.4 0M20 -1l0.4 0M9 -4l0.4 0M-9 -4l0.4 0" stroke="#F6F7DA" stroke-width="3.2" stroke-linecap="round" fill="none"/><ellipse cx="-16" cy="-6" rx="10" ry="1.8" fill="#fff" opacity=".45"/></g><g transform="translate(429 465)rotate(4)"><ellipse rx="36" ry="11" fill="url(#cheeseburger-pickle)"/><ellipse rx="39" ry="13" fill="none" stroke="#2F450D" stroke-width="2.4" stroke-dasharray="3.5 3"/><path d="M-20 -1l0.4 0M-11 4l0.4 0M0 5l0.4 0M11 4l0.4 0M20 -1l0.4 0M9 -4l0.4 0M-9 -4l0.4 0" stroke="#F6F7DA" stroke-width="3.2" stroke-linecap="round" fill="none"/><ellipse cx="-16" cy="-6" rx="10" ry="1.8" fill="#fff" opacity=".45"/></g><g transform="translate(574 459)rotate(4)"><ellipse rx="36" ry="11" fill="url(#cheeseburger-pickle)"/><ellipse rx="39" ry="13" fill="none" stroke="#2F450D" stroke-width="2.4" stroke-dasharray="3.5 3"/><path d="M-20 -1l0.4 0M-11 4l0.4 0M0 5l0.4 0M11 4l0.4 0M20 -1l0.4 0M9 -4l0.4 0M-9 -4l0.4 0" stroke="#F6F7DA" stroke-width="3.2" stroke-linecap="round" fill="none"/><ellipse cx="-16" cy="-6" rx="10" ry="1.8" fill="#fff" opacity=".45"/></g><g clip-path="url(#cheeseburger-b4)" opacity=".45"><use href="#cheeseburger-s40" x="5" y="9" fill="#3a1606" filter="url(#cheeseburger-soft)"/><use href="#cheeseburger-s41" x="5" y="9" fill="#3a1606" filter="url(#cheeseburger-soft)"/></g><use href="#cheeseburger-s40" fill="url(#cheeseburger-tom)"/><use href="#cheeseburger-s40" fill="url(#cheeseburger-cyl)"/><ellipse cx="522" cy="395" rx="188" ry="18" fill="#E8492E" stroke="#F79A7C" stroke-width="2" stroke-opacity=".6"/><path d="M361 416Q403 425 464 427" fill="none" stroke="#fff" stroke-width="3.2" stroke-linecap="round" opacity=".5"/><use href="#cheeseburger-s41" fill="url(#cheeseburger-tom)"/><use href="#cheeseburger-s41" fill="url(#cheeseburger-cyl)"/><ellipse cx="284" cy="398" rx="194" ry="19" fill="#E8492E" stroke="#F79A7C" stroke-width="2" stroke-opacity=".6"/><path d="M118 419Q162 428 225 430" fill="none" stroke="#fff" stroke-width="3.2" stroke-linecap="round" opacity=".5"/><g clip-path="url(#cheeseburger-b5)" opacity=".45"><use href="#cheeseburger-s5b" x="5" y="9" fill="#3a1606" filter="url(#cheeseburger-soft)"/><use href="#cheeseburger-s5" x="5" y="9" fill="#3a1606" filter="url(#cheeseburger-soft)"/></g><use href="#cheeseburger-s5b" fill="url(#cheeseburger-lb5)"/><use href="#cheeseburger-s5" fill="url(#cheeseburger-lf5)"/><use href="#cheeseburger-s5" fill="url(#cheeseburger-cylsoft2)"/><path d="M717 397l3.9-10.5M689 409l-1.3-15.9M670 413l0.8-16.3M638 417l-0.5-15.7M619 419l-2.1-13.6M603 421l3.2-16.5M573 423l0.7-15.4M549 425l3-14.8M531 425l2.6-10.9M479 427l3.8-14.1M445 428l-4.5-14.6M399 428l2.3-11.7M358 428l2-15.9M338 428l1-11.4M308 427l-0.8-14M274 426l4.2-11.9M256 425l0.9-14.9M232 423l-3.7-16.5M177 419l0.5-14.1M157 417l-3.2-15.3M124 412l-0.6-14.4M103 407l-0.3-15.1M81 397l2.5-16.2" stroke="#2A6229" stroke-width="2.2" stroke-linecap="round" fill="none" opacity=".55"/><path d="M703 412l1.1-8.2M680 417l-1.2-10.2M654 425l-2.6-10.3M629 426l-0.9-10M611 426l-2.2-10.7M588 427l-1.2-12.1M561 432l-0.8-8.9M540 434l2.3-8.3M505 438l2.1-11.3M462 433l2.5-9.6M422 441l0-8.6M379 440l2.7-8.7M348 435l-2-12.1M323 435l-0.5-9.3M291 431l-2.3-12.4M265 431l-0.8-9M244 432l-2.2-12.4M204 434l-0.7-11.6M167 422l2.8-9.1M141 420l-0.6-9.2M114 414l2.2-8.4M92 412l0.4-8.9M68 402l1.1-11.9" stroke="#D5EE8C" stroke-width="1.4" stroke-linecap="round" fill="none" opacity=".55"/><path d="M717 395c-1 3-4 12-6 15-2 4-5 4-8 5-2 1-5 4-7 2-3-1-5-10-7-10-1 0-2 9-4 11-1 2-3 1-5 1-2 1-4 3-6 1-1-1-2-10-4-9-2 1-4 13-7 16-3 3-6 1-9 2-3 0-6 3-9 1-3-3-5-14-7-15-2 0-3 12-4 14-2 2-4 0-5 1-2 0-4 2-6 0-1-2-2-12-4-13-1 0-2 9-3 10-1 2-3 1-5 1-1 0-3 2-4 0-1-1-2-9-4-9-1 0-4 7-6 9-3 1-6 0-9 0-2 1-5 2-8 1-2-1-5-9-7-8-2 1-3 12-5 14-2 3-5 1-7 1-2 0-5 2-7 0-2-2-4-14-5-13-2 0-3 12-4 14-2 3-4 1-5 1-2 0-4 2-5 0-2-2-2-15-4-15-3 1-7 16-12 20-4 3-9 0-14 0-5 0-10 4-15 1-4-3-8-17-11-19-3-1-5 8-8 10-2 1-6 0-9 0-3 0-7 2-10 0-2-1-4-11-7-9-3 2-6 17-10 20-4 3-9 0-13 0-4 0-9 3-13 0-4-3-7-20-10-20-3 0-5 16-9 19-3 3-8 0-11 0-4 0-8 3-12 0-3-3-7-18-9-19-2-1-3 10-4 12-2 2-4 0-6 0-2 0-4 2-6 0-1-2-2-12-4-12-2 0-4 10-7 12-2 2-5 0-8 0-3 0-6 2-9-1-2-2-4-11-6-12-3-1-5 7-8 9-3 1-6-1-9-1-3 0-7 1-9 0-3-2-6-9-8-9-2 0-2 8-4 10-1 1-3 0-5 0-1 0-3 1-5-1-1-2-2-10-4-10-1 0-3 10-5 12-2 2-5 0-7 0-2 0-5 2-7-1-2-2-2-14-5-13-3 1-7 16-12 19-5 3-10 0-16-1-5 0-10 3-15-1-5-4-9-19-12-21-3-2-3 6-5 7-1 1-3 0-5-1-2 0-4 1-6 0-1-2-2-8-4-8-2 0-5 6-7 8-3 1-6-1-9-2-3 0-7 1-9-1-3-2-6-10-8-10-2-1-2 6-4 7-2 1-4-1-6-1-2-1-4 0-6-2-2-1-3-10-5-9-1 1-3 11-5 13-1 2-4-1-6-3-2-1-4-2-6-5-2-4-4-13-5-15" fill="none" stroke="#DDF29A" stroke-width="1.5" opacity=".8"/><g clip-path="url(#cheeseburger-b6)" opacity=".45"><use href="#cheeseburger-s6" x="5" y="9" fill="#3a1606" filter="url(#cheeseburger-soft)"/></g><use href="#cheeseburger-s6" fill="url(#cheeseburger-bunt)" filter="url(#cheeseburger-bun-grain)"/><use href="#cheeseburger-s6" fill="url(#cheeseburger-band)"/><use href="#cheeseburger-s6" fill="url(#cheeseburger-cyl)"/><path d="M202 270l7-1.8M581 285l7.4-0.1M441 312l8.1 2.5M382 306l7.7-3.6M162 289l3.9-5.6M292 302l5-6.7M539 330l7.1-3.8M634 345l6.2 2.7M399 228l8.3 1.2M511 254l3.8 6.2M439 281l8.4 0.5M342 281l7.1 4.6M430 242l7.3 3.2M261 342l6.5-4.9M337 330l6.2-5.7M234 270l7.5-1.4M600 247l4.3 3.6M369 266l7.2 4.5M510 313l6.8 4.7M359 223l6.5-2.7M222 315l7.4-1.6M319 295l6.4-5.4M636 275l5.9 2.5M180 303l6.8 1.6M594 321l7.1 1.8M657 308l5.2 4.2M251 309l7.9-0.3M474 247l8.1 1.6M291 257l8.2 0.2M471 313l6.8 4.9M201 332l6.1-4.5M555 266l7.6-1.1M254 233l7.7 1M300 228l7.6 1.8M406 273l7.4-4.1M537 247l7.5-1.7M625 298l6.1 3.5M495 296l8.1-1.2M453 257l6.5 4.8M390 336l8.4 1.4M526 278l5.4 6.3M156 326l5.6-4.1M549 296l7.4-2.6M622 320l2.9 7.7" stroke="#6b300c" stroke-width="7.2" stroke-linecap="round" fill="none" opacity=".33"/><path d="M201 268l7-1.8M580 283l7.4-0.1M440 310l8.1 2.5M381 304l7.7-3.6M161 287l3.9-5.6M538 328l7.1-3.8M632 343l6.2 2.7M398 226l8.3 1.2M509 252l3.8 6.2M340 279l7.1 4.6M428 240l7.3 3.2M260 340l6.5-4.9M232 268l7.5-1.4M598 245l4.3 3.6M358 221l6.5-2.7M220 313l7.4-1.6M317 293l6.4-5.4M635 273l5.9 2.5M593 319l7.1 1.8M249 307l7.9-0.3M473 245l8.1 1.6M289 255l8.2 0.2M199 330l6.1-4.5M554 264l7.6-1.1M253 231l7.7 1M536 245l7.5-1.7M389 334l8.4 1.4M525 276l5.4 6.3M155 324l5.6-4.1" stroke="#FCF2D8" stroke-width="6.4" stroke-linecap="round" fill="none"/><path d="M290 300l5-6.7M438 279l8.4 0.5M336 328l6.2-5.7M368 264l7.2 4.5M509 311l6.8 4.7M179 301l6.8 1.6M656 306l5.2 4.2M470 311l6.8 4.9M299 226l7.6 1.8M405 271l7.4-4.1M624 296l6.1 3.5M494 294l8.1-1.2M452 255l6.5 4.8M548 294l7.4-2.6M621 318l2.9 7.7" stroke="#F1DBA8" stroke-width="6.4" stroke-linecap="round" fill="none"/><path d="M200 266l4.2-1.1M579 282l4.5-0.1M439 309l4.8 1.5M380 303l4.6-2.2M160 285l2.4-3.3M290 299l3-4M537 327l4.2-2.3M632 342l3.7 1.6M397 225l5 0.7M509 251l2.3 3.7M437 278l5.1 0.3M340 278l4.3 2.7M427 238l4.4 1.9M259 339l3.9-2.9M335 327l3.7-3.4M232 267l4.5-0.9M598 244l2.6 2.2M367 263l4.3 2.7M508 310l4.1 2.8M357 220l3.9-1.6M220 311l4.4-1M316 292l3.9-3.2M634 272l3.5 1.5M178 299l4.1 0.9M592 318l4.3 1.1M655 305l3.1 2.5M248 306l4.7-0.2M472 244l4.8 1M289 254l4.9 0.1M469 309l4.1 2.9M198 328l3.7-2.7M553 263l4.6-0.7M252 230l4.6 0.6M298 225l4.5 1.1M404 270l4.5-2.5M535 244l4.5-1M623 295l3.7 2.1M493 293l4.9-0.7M451 254l3.9 2.9M388 332l5 0.8M524 275l3.2 3.8M154 323l3.4-2.5M547 292l4.5-1.6M620 317l1.7 4.6" stroke="#fff" stroke-width="2" stroke-linecap="round" fill="none" opacity=".85"/><ellipse cx="296" cy="269" rx="116" ry="36" transform="rotate(-18 296 269)" fill="url(#cheeseburger-gloss)"/><ellipse cx="267" cy="252" rx="41" ry="10" transform="rotate(-24 267 252)" fill="url(#cheeseburger-spec)"/></svg>